<svg width="100" height="100" viewBox="0 0 100 100" fill="none" xmlns="http://www.w3.org/2000/svg">
<g opacity="0.3">
<path d="M33.2873 18.7625L63.7373 50L33.2873 81.2375C32.7421 81.7956 32.4369 82.5448 32.4369 83.325C32.4369 84.1052 32.7421 84.8544 33.2873 85.4125C33.5521 85.6827 33.8681 85.8974 34.2169 86.044C34.5657 86.1905 34.9402 86.266 35.3186 86.266C35.6969 86.266 36.0714 86.1905 36.4202 86.044C36.769 85.8974 37.085 85.6827 37.3498 85.4125L69.7498 52.1812C70.3187 51.5977 70.637 50.8149 70.637 50C70.637 49.185 70.3187 48.4023 69.7498 47.8187L37.3561 14.5875C37.0911 14.3153 36.7743 14.099 36.4243 13.9513C36.0744 13.8036 35.6984 13.7276 35.3186 13.7276C34.9387 13.7276 34.5627 13.8036 34.2128 13.9513C33.8629 14.099 33.546 14.3153 33.2811 14.5875C32.7359 15.1456 32.4307 15.8948 32.4307 16.675C32.4307 17.4552 32.7359 18.2044 33.2811 18.7625L33.2873 18.7625Z" fill="white"/>
</g>
</svg>
