<svg width="100" height="100" viewBox="0 0 100 100" fill="none" xmlns="http://www.w3.org/2000/svg">
<g opacity="0.3">
<path d="M66.7124 81.2375L36.2624 50L66.7124 18.7625C67.2576 18.2044 67.5628 17.4552 67.5628 16.675C67.5628 15.8948 67.2576 15.1456 66.7124 14.5875C66.4477 14.3173 66.1316 14.1026 65.7828 13.956C65.434 13.8095 65.0595 13.734 64.6812 13.734C64.3029 13.734 63.9283 13.8095 63.5795 13.956C63.2307 14.1026 62.9147 14.3173 62.6499 14.5875L30.2499 47.8188C29.6811 48.4023 29.3627 49.185 29.3627 50C29.3627 50.815 29.6811 51.5977 30.2499 52.1813L62.6437 85.4125C62.9087 85.6847 63.2255 85.901 63.5754 86.0487C63.9254 86.1963 64.3013 86.2724 64.6812 86.2724C65.061 86.2724 65.437 86.1964 65.787 86.0487C66.1369 85.901 66.4537 85.6847 66.7187 85.4125C67.2639 84.8544 67.5691 84.1052 67.5691 83.325C67.5691 82.5448 67.2639 81.7956 66.7187 81.2375L66.7124 81.2375Z" fill="white"/>
</g>
</svg>
